HIERARCHY
ROOT reference
{
  OFFSET -65.3212 -1.93545 -120.338
  CHANNELS 6 Xposition Yposition Zposition Zrotation Xrotation Yrotation
  JOINT Hips
  {
    OFFSET 0 78.7191 0
    CHANNELS 6 Xposition Yposition Zposition Zrotation Xrotation Yrotation
    JOINT Chest
    {
      OFFSET 0 8.7983 -4.7612
      CHANNELS 6 Xposition Yposition Zposition Zrotation Xrotation Yrotation
      JOINT Chest2
      {
        OFFSET 0 8.0291 0.4195
        CHANNELS 6 Xposition Yposition Zposition Zrotation Xrotation Yrotation
        JOINT Chest3
        {
          OFFSET 0 9.9351 -2.2114
          CHANNELS 6 Xposition Yposition Zposition Zrotation Xrotation Yrotation
          JOINT Neck
          {
            OFFSET 0 22.3885 -0.4656
            CHANNELS 6 Xposition Yposition Zposition Zrotation Xrotation Yrotation
            JOINT Head
            {
              OFFSET -0.0001 12.643 3.4389
              CHANNELS 6 Xposition Yposition Zposition Zrotation Xrotation Yrotation
              End Site
              {
                OFFSET 0.0001 17.6655 0.5274
              }
            }
          }
          JOINT LeftCollar
          {
            OFFSET 2.2603 21.606 7.4023
            CHANNELS 6 Xposition Yposition Zposition Zrotation Xrotation Yrotation
            JOINT LeftShoulder
            {
              OFFSET 13.5163 -1.1332 -5.0146
              CHANNELS 6 Xposition Yposition Zposition Zrotation Xrotation Yrotation
              JOINT LeftElbow
              {
                OFFSET -0.0995 -28.05 -0.2431
                CHANNELS 6 Xposition Yposition Zposition Zrotation Xrotation Yrotation
                JOINT LeftWrist
                {
                  OFFSET 0.0679 -23.3996 -0.1402
                  CHANNELS 6 Xposition Yposition Zposition Zrotation Xrotation Yrotation
                  JOINT LeftFinger1
                  {
                    OFFSET 0.7932 -9.069 2.5189
                    CHANNELS 6 Xposition Yposition Zposition Zrotation Xrotation Yrotation
                    JOINT LeftFinger11
                    {
                      OFFSET -0.8272 -3.3923 0.5977
                      CHANNELS 6 Xposition Yposition Zposition Zrotation Xrotation Yrotation
                      JOINT LeftFinger12
                      {
                        OFFSET -0.5649 -2.3158 0.4082
                        CHANNELS 6 Xposition Yposition Zposition Zrotation Xrotation Yrotation
                        End Site
                        {
                          OFFSET -0.4919 -1.6479 0.2673
                        }
                      }
                    }
                  }
                  JOINT LeftFinger2
                  {
                    OFFSET 0.9159 -9.2044 0.2193
                    CHANNELS 6 Xposition Yposition Zposition Zrotation Xrotation Yrotation
                    JOINT LeftFinger21
                    {
                      OFFSET 0.0117 -4.1944 -0.0248
                      CHANNELS 6 Xposition Yposition Zposition Zrotation Xrotation Yrotation
                      JOINT LeftFinger22
                      {
                        OFFSET 0.0071 -2.3249 -0.0142
                        CHANNELS 6 Xposition Yposition Zposition Zrotation Xrotation Yrotation
                        End Site
                        {
                          OFFSET -0.1475 -2.0882 0.0028
                        }
                      }
                    }
                  }
                  JOINT LeftFinger3
                  {
                    OFFSET 0.6113 -8.7231 -2.0637
                    CHANNELS 6 Xposition Yposition Zposition Zrotation Xrotation Yrotation
                    JOINT LeftFinger31
                    {
                      OFFSET -0.1927 -3.8059 -0.2383
                      CHANNELS 6 Xposition Yposition Zposition Zrotation Xrotation Yrotation
                      JOINT LeftFinger32
                      {
                        OFFSET -0.1091 -2.1688 -0.1362
                        CHANNELS 6 Xposition Yposition Zposition Zrotation Xrotation Yrotation
                        End Site
                        {
                          OFFSET -0.2358 -1.9176 -0.0906
                        }
                      }
                    }
                  }
                  JOINT LeftFinger4
                  {
                    OFFSET -0.6151 -8.0947 -3.5641
                    CHANNELS 6 Xposition Yposition Zposition Zrotation Xrotation Yrotation
                    JOINT LeftFinger41
                    {
                      OFFSET -0.4882 -2.341 -0.6462
                      CHANNELS 6 Xposition Yposition Zposition Zrotation Xrotation Yrotation
                      JOINT LeftFinger42
                      {
                        OFFSET -0.3575 -1.7167 -0.4742
                        CHANNELS 6 Xposition Yposition Zposition Zrotation Xrotation Yrotation
                        End Site
                        {
                          OFFSET -0.4187 -1.5237 -0.3496
                        }
                      }
                    }
                  }
                  JOINT LeftFinger0
                  {
                    OFFSET -1.42 -1.8761 1.4223
                    CHANNELS 6 Xposition Yposition Zposition Zrotation Xrotation Yrotation
                    JOINT LeftFinger01
                    {
                      OFFSET -1.1471 -3.4929 2.6334
                      CHANNELS 6 Xposition Yposition Zposition Zrotation Xrotation Yrotation
                      JOINT LeftFinger02
                      {
                        OFFSET -0.823 -2.3 1.6571
                        CHANNELS 6 Xposition Yposition Zposition Zrotation Xrotation Yrotation
                        End Site
                        {
                          OFFSET -0.5822 -1.6914 1.1582
                        }
                      }
                    }
                  }
                }
              }
            }
          }
          JOINT RightCollar
          {
            OFFSET -2.2603 21.606 7.4023
            CHANNELS 6 Xposition Yposition Zposition Zrotation Xrotation Yrotation
            JOINT RightShoulder
            {
              OFFSET -13.5187 -1.1334 -5.0155
              CHANNELS 6 Xposition Yposition Zposition Zrotation Xrotation Yrotation
              JOINT RightElbow
              {
                OFFSET 0.0994 -28.0499 -0.2431
                CHANNELS 6 Xposition Yposition Zposition Zrotation Xrotation Yrotation
                JOINT RightWrist
                {
                  OFFSET -0.0679 -23.3996 -0.1402
                  CHANNELS 6 Xposition Yposition Zposition Zrotation Xrotation Yrotation
                  JOINT RightFinger1
                  {
                    OFFSET -0.7932 -9.0691 2.5189
                    CHANNELS 6 Xposition Yposition Zposition Zrotation Xrotation Yrotation
                    JOINT RightFinger11
                    {
                      OFFSET 0.8272 -3.3923 0.5977
                      CHANNELS 6 Xposition Yposition Zposition Zrotation Xrotation Yrotation
                      JOINT RightFinger12
                      {
                        OFFSET 0.565 -2.3158 0.4082
                        CHANNELS 6 Xposition Yposition Zposition Zrotation Xrotation Yrotation
                        End Site
                        {
                          OFFSET 0.4919 -1.6479 0.2673
                        }
                      }
                    }
                  }
                  JOINT RightFinger2
                  {
                    OFFSET -0.916 -9.2044 0.2193
                    CHANNELS 6 Xposition Yposition Zposition Zrotation Xrotation Yrotation
                    JOINT RightFinger21
                    {
                      OFFSET -0.0117 -4.1944 -0.0248
                      CHANNELS 6 Xposition Yposition Zposition Zrotation Xrotation Yrotation
                      JOINT RightFinger22
                      {
                        OFFSET -0.0071 -2.3249 -0.0142
                        CHANNELS 6 Xposition Yposition Zposition Zrotation Xrotation Yrotation
                        End Site
                        {
                          OFFSET 0.1475 -2.0882 0.0028
                        }
                      }
                    }
                  }
                  JOINT RightFinger3
                  {
                    OFFSET -0.6113 -8.7231 -2.0637
                    CHANNELS 6 Xposition Yposition Zposition Zrotation Xrotation Yrotation
                    JOINT RightFinger31
                    {
                      OFFSET 0.1927 -3.8059 -0.2383
                      CHANNELS 6 Xposition Yposition Zposition Zrotation Xrotation Yrotation
                      JOINT RightFinger32
                      {
                        OFFSET 0.1091 -2.1688 -0.1362
                        CHANNELS 6 Xposition Yposition Zposition Zrotation Xrotation Yrotation
                        End Site
                        {
                          OFFSET 0.2358 -1.9176 -0.0906
                        }
                      }
                    }
                  }
                  JOINT RightFinger4
                  {
                    OFFSET 0.6151 -8.0947 -3.564
                    CHANNELS 6 Xposition Yposition Zposition Zrotation Xrotation Yrotation
                    JOINT RightFinger41
                    {
                      OFFSET 0.4882 -2.341 -0.6462
                      CHANNELS 6 Xposition Yposition Zposition Zrotation Xrotation Yrotation
                      JOINT RightFinger42
                      {
                        OFFSET 0.3574 -1.7166 -0.4742
                        CHANNELS 6 Xposition Yposition Zposition Zrotation Xrotation Yrotation
                        End Site
                        {
                          OFFSET 0.4187 -1.5237 -0.3496
                        }
                      }
                    }
                  }
                  JOINT RightFinger0
                  {
                    OFFSET 1.4199 -1.8761 1.4221
                    CHANNELS 6 Xposition Yposition Zposition Zrotation Xrotation Yrotation
                    JOINT RightFinger01
                    {
                      OFFSET 1.1472 -3.4929 2.6336
                      CHANNELS 6 Xposition Yposition Zposition Zrotation Xrotation Yrotation
                      JOINT RightFinger02
                      {
                        OFFSET 0.8229 -2.3 1.6571
                        CHANNELS 6 Xposition Yposition Zposition Zrotation Xrotation Yrotation
                        End Site
                        {
                          OFFSET 0.5822 -1.6914 1.1582
                        }
                      }
                    }
                  }
                }
              }
            }
          }
        }
      }
    }
    JOINT RightHip
    {
      OFFSET -9.412 3.9771 -0.7758
      CHANNELS 6 Xposition Yposition Zposition Zrotation Xrotation Yrotation
      JOINT RightKnee
      {
        OFFSET -0.7531 -40.938 0
        CHANNELS 6 Xposition Yposition Zposition Zrotation Xrotation Yrotation
        JOINT RightAnkle
        {
          OFFSET 0 -40.1986 0
          CHANNELS 6 Xposition Yposition Zposition Zrotation Xrotation Yrotation
          JOINT RightToe
          {
            OFFSET 0 -4.4182 9.239
            CHANNELS 6 Xposition Yposition Zposition Zrotation Xrotation Yrotation
            End Site
            {
              OFFSET 0 0 6.1981
            }
          }
        }
      }
    }
    JOINT LeftHip
    {
      OFFSET 9.4119 3.9773 -0.7758
      CHANNELS 6 Xposition Yposition Zposition Zrotation Xrotation Yrotation
      JOINT LeftKnee
      {
        OFFSET 0.7532 -40.9383 0
        CHANNELS 6 Xposition Yposition Zposition Zrotation Xrotation Yrotation
        JOINT LeftAnkle
        {
          OFFSET 0 -40.1986 0
          CHANNELS 6 Xposition Yposition Zposition Zrotation Xrotation Yrotation
          JOINT LeftToe
          {
            OFFSET 0 -4.4182 9.239
            CHANNELS 6 Xposition Yposition Zposition Zrotation Xrotation Yrotation
            End Site
            {
              OFFSET 0 0 6.1981
            }
          }
        }
      }
    }
  }
}
MOTION
Frames:	4
Frame Time:	0.0333333
-31.912 47.9685 -6.8603 0 0 -0 3.55271e-015 78.7191 0 -5.70158 -28.0471 27.2718 -7.10543e-015 8.7983 -4.7612 -0.45879 4.91663 -4.44836 0 8.0291 0.4195 -0.53475 9.85404 -8.90664 0 9.9351 -2.2114 -0.534757 9.85406 -8.90667 0 22.3885 -0.4656 0.419385 8.27917 11.2858 -0.0001 12.643 3.4389 12.1906 1.03821 16.5832 2.2603 21.606 7.4023 8.6376 -1.84051 -32.0382 13.5163 -1.1332 -5.0146 39.4012 -11.0044 20.8659 -0.0995 -28.05 -0.2431 -116.911 -42.8656 -69.8059 0.0679 -23.3996 -0.1402 -32.2468 2.44532 39.0287 0.7932 -9.069 2.5189 -3.03455 13.5333 -2.18214 -0.8272 -3.3923 0.5977 -35.3168 20.4567 4.66821 -0.5649 -2.3158 0.4082 -36.3891 20.9688 4.99581 0.9159 -9.2044 0.2193 -1.00371 1.77404 1.17348 0.0117 -4.1944 -0.0248 -42.7842 24.7472 5.54521 0.0071 -2.3249 -0.0142 -8.91324 5.62874 -0.442311 0.6113 -8.7231 -2.0637 -6.58203 6.72806 5.0649 -0.1927 -3.8059 -0.2383 -13.8829 9.68224 -0.672562 -0.1091 -2.1688 -0.1362 -15.2684 10.6412 -0.610557 -0.6151 -8.0947 -3.5641 13.8074 -0.976093 8.79334 -0.4882 -2.341 -0.6462 -17.7367 12.2751 -1.06116 -0.3575 -1.7167 -0.4742 -8.75062 6.0302 -1.00086 -1.42 -1.8761 1.4223 -11.5752 -16.7453 -49.4479 -1.1471 -3.4929 2.6334 -4.53551 0.27487 0.3126 -0.823 -2.3 1.6571 8.53294 10.6973 -3.07918 -2.2603 21.606 7.4023 -0.206989 0.361012 1.11562 -13.5187 -1.1334 -5.0155 -36.3976 -39.7618 -10.7415 0.0994 -28.0499 -0.2431 173.761 -60.9292 91.005 -0.0679 -23.3996 -0.1402 -17.1949 -19.0312 12.354 -0.7932 -9.0691 2.5189 -26.3168 9.86699 9.08474 0.8272 -3.3923 0.5977 39.4242 12.0336 -4.97762 0.565 -2.3158 0.4082 45.4054 13.4037 -6.38641 -0.916 -9.2044 0.2193 -2.23353 10.2522 5.0386 -0.0117 -4.1944 -0.0248 52.3752 15.6203 -6.40186 -0.00710001 -2.3249 -0.0142 44.0892 13.7159 -4.4862 -0.6113 -8.7231 -2.0637 15.0073 7.5868 -5.70554 0.1927 -3.8059 -0.2383 37.2883 13.8495 -2.53176 0.1091 -2.1688 -0.1362 38.5715 14.2636 -2.77371 0.6151 -8.0947 -3.564 23.0538 4.37528 -8.9026 0.4882 -2.341 -0.6462 30.7535 11.5466 -0.514169 0.3574 -1.7166 -0.4742 30.6847 11.5225 -0.506187 1.4199 -1.8761 1.4221 7.91144 0.880183 52.6243 1.1472 -3.4929 2.6336 -0.671118 1.52911 0.489031 0.822901 -2.3 1.6571 -7.19734 14.537 5.60461 -9.412 3.9771 -0.7758 25.9293 -69.0152 -13.4601 -0.7531 -40.938 2.84217e-014 42.6764 69.8472 -38.8285 0 -40.1986 0 4.03525 -4.395 -10.4589 0 -4.4182 9.239 2.11704 13.7788 -1.0507 9.4119 3.9773 -0.7758 2.53518 -38.5368 10.7461 0.7532 -40.9383 0 179.954 68.3165 -178.421 7.10543e-015 -40.1986 1.42109e-014 1.13409 -11.4857 -9.99378 -1.42109e-014 -4.4182 9.239 0.330845 -2.47247 0.00711785 
-32.0025 47.5168 -6.83212 0 0 -0 7.10543e-015 78.7191 0 -6.08165 -28.0862 25.9835 0 8.7983 -4.7612 -0.53063 4.89208 -4.22845 -7.10543e-015 8.0291 0.4195 -0.700095 9.80993 -8.45786 0 9.9351 -2.2114 -0.700091 9.80997 -8.45789 0 22.3885 -0.4656 0.478685 8.4653 12.206 -0.0001 12.643 3.4389 11.9582 1.53125 17.1371 2.2603 21.606 7.4023 9.5937 -1.84285 -32.0443 13.5163 -1.1332 -5.0146 39.0463 -11.8248 20.7118 -0.0995 -28.05 -0.2431 -116.9 -42.4267 -69.9399 0.0679 -23.3996 -0.1402 -30.9967 2.1974 39.3586 0.7932 -9.069 2.5189 -3.03456 13.5333 -2.1821 -0.8272 -3.3923 0.5977 -35.3167 20.4567 4.6682 -0.5649 -2.3158 0.4082 -36.3891 20.9688 4.99583 0.9159 -9.2044 0.2193 -1.0037 1.77402 1.1735 0.0117 -4.1944 -0.0248 -42.7842 24.7472 5.54519 0.0071 -2.3249 -0.0142 -8.91324 5.62838 -0.441792 0.6113 -8.7231 -2.0637 -6.58204 6.72805 5.06491 -0.1927 -3.8059 -0.2383 -13.8829 9.68224 -0.672554 -0.1091 -2.1688 -0.1362 -15.2683 10.641 -0.61024 -0.6151 -8.0947 -3.5641 13.8074 -0.976116 8.79333 -0.4882 -2.341 -0.6462 -17.7369 12.2753 -1.06116 -0.3575 -1.7167 -0.4742 -8.75067 6.03018 -1.00086 -1.42 -1.8761 1.4223 -11.5753 -16.7454 -49.4479 -1.1471 -3.4929 2.6334 -4.53518 0.274831 0.312655 -0.823 -2.3 1.6571 8.53295 10.6972 -3.07918 -2.2603 21.606 7.4023 -0.0181069 0.154425 0.809846 -13.5187 -1.1334 -5.0155 -37.3739 -39.1799 -11.4171 0.0994 -28.0499 -0.2431 173.836 -60.6639 91.1412 -0.0679 -23.3996 -0.1402 -17.5609 -18.9367 10.8445 -0.7932 -9.0691 2.5189 -26.3168 9.867 9.08477 0.8272 -3.3923 0.5977 39.4244 12.0336 -4.97767 0.565 -2.3158 0.4082 45.4054 13.4037 -6.38644 -0.916 -9.2044 0.2193 -2.23349 10.2521 5.03859 -0.0117 -4.1944 -0.0248 52.3752 15.6203 -6.40187 -0.0071 -2.3249 -0.0142 44.0892 13.7159 -4.48619 -0.6113 -8.7231 -2.0637 15.0073 7.58685 -5.70548 0.1927 -3.8059 -0.2383 37.2883 13.8495 -2.53175 0.1091 -2.1688 -0.1362 38.5715 14.2636 -2.7737 0.6151 -8.0947 -3.564 23.0538 4.3753 -8.90263 0.4882 -2.341 -0.6462 30.7533 11.5465 -0.514131 0.3574 -1.7166 -0.4742 30.6847 11.5225 -0.506182 1.4199 -1.8761 1.4221 7.91146 0.880187 52.6243 1.1472 -3.4929 2.6336 -0.671127 1.52911 0.489031 0.8229 -2.3 1.6571 -7.19735 14.537 5.60461 -9.412 3.9771 -0.7758 24.4604 -67.6927 -14.2903 -0.7531 -40.938 0 42.924 69.6327 -38.5008 -7.10543e-015 -40.1986 -7.10543e-015 2.57409 -5.83385 -9.66624 0 -4.4182 9.239 2.12469 13.8244 -1.05514 9.4119 3.9773 -0.7758 2.97267 -37.2706 10.6742 0.7532 -40.9383 0 179.736 70.4645 -177.942 0 -40.1986 -2.84217e-014 0.964417 -13.1729 -10.0234 1.42109e-014 -4.4182 9.239 0.315048 -2.35449 0.00643523 
-32.0713 47.0171 -6.74352 0 0 -0 7.10543e-015 78.7191 0 -6.59186 -28.3118 24.5787 -1.42109e-014 8.7983 -4.7612 -0.576028 4.86352 -4.01035 -7.10543e-015 8.0291 0.4195 -0.812247 9.75537 -8.01509 1.42109e-014 9.9351 -2.2114 -0.812257 9.75539 -8.01512 1.42109e-014 22.3885 -0.4656 0.538547 8.70217 13.0452 -0.0001 12.643 3.4389 11.6471 2.13952 17.5955 2.2603 21.606 7.4023 10.8721 -1.86057 -32.1641 13.5163 -1.1332 -5.0146 38.7077 -12.797 20.663 -0.0995 -28.05 -0.2431 -116.563 -42.0443 -70.0796 0.0679 -23.3996 -0.1402 -29.6057 1.35241 40.0282 0.7932 -9.069 2.5189 -3.03456 13.5333 -2.18211 -0.8272 -3.3923 0.5977 -35.3168 20.4567 4.6682 -0.5649 -2.3158 0.4082 -36.3892 20.9688 4.99583 0.9159 -9.2044 0.2193 -1.00371 1.77405 1.17349 0.0117 -4.1944 -0.0248 -42.7842 24.7472 5.54519 0.0071 -2.3249 -0.0142 -8.91322 5.628 -0.441261 0.6113 -8.7231 -2.0637 -6.58204 6.72805 5.06493 -0.1927 -3.8059 -0.2383 -13.8829 9.68224 -0.672562 -0.1091 -2.1688 -0.1362 -15.2682 10.6408 -0.609909 -0.6151 -8.0947 -3.5641 13.8074 -0.9761 8.79334 -0.4882 -2.341 -0.6462 -17.7371 12.2754 -1.06115 -0.3575 -1.7167 -0.4742 -8.75067 6.0302 -1.00086 -1.42 -1.8761 1.4223 -11.5753 -16.7453 -49.4479 -1.1471 -3.4929 2.6334 -4.53482 0.274659 0.312686 -0.823 -2.3 1.6571 8.53293 10.6973 -3.07917 -2.2603 21.606 7.4023 0.200416 -0.0117121 0.561543 -13.5187 -1.1334 -5.0155 -37.8349 -38.8891 -11.6663 0.0994 -28.0499 -0.2431 174.379 -60.8656 91.9382 -0.0679 -23.3996 -0.1402 -17.6548 -18.4099 9.60956 -0.7932 -9.0691 2.5189 -26.3168 9.86699 9.08475 0.8272 -3.3923 0.5977 39.4247 12.0336 -4.97769 0.565 -2.3158 0.4082 45.4054 13.4037 -6.38642 -0.916 -9.2044 0.2193 -2.23351 10.2521 5.03859 -0.0117 -4.1944 -0.0248 52.3752 15.6203 -6.40188 -0.0071 -2.3249 -0.0142 44.0892 13.7159 -4.48621 -0.6113 -8.7231 -2.0637 15.0071 7.58676 -5.70554 0.1927 -3.8059 -0.2383 37.2883 13.8495 -2.53175 0.1091 -2.1688 -0.1362 38.5716 14.2636 -2.77369 0.6151 -8.0947 -3.564 23.0538 4.37531 -8.9026 0.4882 -2.341 -0.6462 30.7531 11.5465 -0.514125 0.3574 -1.7166 -0.4742 30.6847 11.5225 -0.506166 1.4199 -1.8761 1.4221 7.91145 0.880171 52.6244 1.1472 -3.4929 2.6336 -0.671113 1.52912 0.48904 0.8229 -2.3 1.6571 -7.19736 14.537 5.60461 -9.412 3.9771 -0.7758 22.8877 -66.3418 -14.8553 -0.7531 -40.938 2.84217e-014 43.3415 69.5406 -38.4348 -7.10543e-015 -40.1986 0 1.40199 -7.10958 -8.88584 0 -4.4182 9.239 2.13882 13.9087 -1.06335 9.4119 3.9773 -0.7758 4.11944 -36.588 10.8338 0.7532 -40.9383 0 179.438 72.7441 -177.366 0 -40.1986 7.10543e-015 0.935201 -14.0871 -10.1877 1.42109e-014 -4.4182 9.239 0.291776 -2.18059 0.00551883 
-32.1021 46.5005 -6.60926 0 0 -0 7.10543e-015 78.7191 0 -7.12493 -28.6997 23.1227 0 8.7983 -4.7612 -0.596498 4.84084 -3.77162 2.84217e-014 8.0291 0.4195 -0.875508 9.71035 -7.53309 1.42109e-014 9.9351 -2.2114 -0.875517 9.7104 -7.53313 0 22.3885 -0.4656 0.586468 9.03774 13.873 -0.0001 12.643 3.4389 11.2472 2.75923 18.0145 2.2603 21.606 7.4023 12.1306 -1.8915 -32.3488 13.5163 -1.1332 -5.0146 38.4518 -13.8034 20.6502 -0.0995 -28.05 -0.2431 -116.05 -41.8089 -70.1317 0.0679 -23.3996 -0.1402 -28.3674 0.285088 40.8583 0.7932 -9.069 2.5189 -3.03456 13.5333 -2.18212 -0.8272 -3.3923 0.5977 -35.3168 20.4567 4.66822 -0.5649 -2.3158 0.4082 -36.3892 20.9688 4.99586 0.9159 -9.2044 0.2193 -1.00373 1.77403 1.17351 0.0117 -4.1944 -0.0248 -42.7842 24.7472 5.54519 0.0071 -2.3249 -0.0142 -8.91323 5.62763 -0.440733 0.6113 -8.7231 -2.0637 -6.58203 6.72806 5.06492 -0.1927 -3.8059 -0.2383 -13.8829 9.68224 -0.672536 -0.1091 -2.1688 -0.1362 -15.2681 10.6406 -0.60959 -0.6151 -8.0947 -3.5641 13.8074 -0.97609 8.79333 -0.4882 -2.341 -0.6462 -17.7373 12.2756 -1.06116 -0.3575 -1.7167 -0.4742 -8.75066 6.03021 -1.00084 -1.42 -1.8761 1.4223 -11.5753 -16.7453 -49.448 -1.1471 -3.4929 2.6334 -4.53446 0.274636 0.312742 -0.823 -2.3 1.6571 8.53297 10.6973 -3.07916 -2.2603 21.606 7.4023 0.322216 -0.0849652 0.450304 -13.5187 -1.1334 -5.0155 -37.8476 -38.8043 -11.6707 0.0994 -28.0499 -0.2431 175.275 -61.2881 92.956 -0.0679 -23.3996 -0.1402 -17.5688 -17.7189 9.05557 -0.7932 -9.0691 2.5189 -26.3168 9.86697 9.08475 0.8272 -3.3923 0.5977 39.4249 12.0337 -4.97775 0.565 -2.3158 0.4082 45.4054 13.4037 -6.38639 -0.916 -9.2044 0.2193 -2.23351 10.2521 5.03862 -0.0117 -4.1944 -0.0248 52.3752 15.6203 -6.40187 -0.0071 -2.3249 -0.0142 44.0892 13.7159 -4.48619 -0.6113 -8.7231 -2.0637 15.0071 7.58678 -5.70545 0.1927 -3.8059 -0.2383 37.2883 13.8495 -2.53175 0.1091 -2.1688 -0.1362 38.5715 14.2636 -2.77369 0.6151 -8.0947 -3.564 23.0538 4.37531 -8.90257 0.4882 -2.341 -0.6462 30.7529 11.5464 -0.514095 0.3574 -1.7166 -0.4742 30.6847 11.5224 -0.506149 1.4199 -1.8761 1.4221 7.91145 0.880188 52.6244 1.1472 -3.4929 2.6336 -0.671124 1.5291 0.489045 0.8229 -2.3 1.6571 -7.19736 14.537 5.60462 -9.412 3.9771 -0.7758 21.1778 -65.0387 -15.2509 -0.7531 -40.938 0 43.7504 69.5042 -38.4466 1.42109e-014 -40.1986 0 0.378135 -8.16084 -7.99303 0 -4.4182 9.239 2.15923 14.0305 -1.07529 9.4119 3.9773 -0.7758 5.82348 -36.4694 11.3368 0.7532 -40.9383 1.42109e-014 179.108 75.0208 -176.84 0 -40.1986 7.10543e-015 1.00704 -14.4202 -10.5155 0 -4.4182 9.239 0.261441 -1.95402 0.00442493 
